# xmcd CD database file
#
# Track frame offsets:
#	150
#	22655
#	41738
#
# Disc length: 875 seconds
#
# Revision: 0
# Processed by: cddbd v1.5.1PL2 Copyright (c) Steve Scherf et al.
# Submitted via: CDex 1.51
#
DISCID=17036903
DTITLE=広瀬香美 - GIFT★愛は特効薬
DYEAR=2006
DGENRE=JPop
TTITLE0=GIFT
TTITLE1=愛は特効薬
TTITLE2=甘いお話part3
EXTD=YEAR: 2006
EXTT0=
EXTT1=
EXTT2=
PLAYORDER=
